<svg width="33" height="32" viewBox="0 0 33 32" fill="none" xmlns="http://www.w3.org/2000/svg">
<rect x="0.015625" width="32" height="32" rx="16" fill="white"/>
<path d="M8.57764 23.502C8.57764 22.402 12.5776 20.714 16.0156 20.714C19.4536 20.714 23.4536 22.398 23.4536 23.502H25.0156C25.0156 20.677 19.0656 19.143 16.0156 19.143C12.9656 19.143 7.01562 20.677 7.01562 23.502H8.57764Z" fill="#666666"/>
<path d="M19.1029 10.107C18.7014 9.70215 18.2234 9.38122 17.6967 9.16284C17.17 8.94447 16.6051 8.83301 16.0349 8.83499L16.0159 8.49799V8.83499C15.0115 8.8386 14.0395 9.19014 13.2651 9.82974C12.4908 10.4693 11.9619 11.3575 11.7687 12.3431C11.5754 13.3287 11.7297 14.3508 12.2051 15.2354C12.6806 16.1201 13.4479 16.8127 14.3766 17.1953C15.3052 17.578 16.3377 17.627 17.2984 17.3341C18.2591 17.0412 19.0886 16.4245 19.6458 15.5888C20.2029 14.7532 20.4534 13.7503 20.3544 12.7509C20.2554 11.7514 19.8131 10.8171 19.1029 10.107ZM18.0029 15.158C17.7463 15.4184 17.4406 15.6252 17.1034 15.7664C16.7663 15.9077 16.4044 15.9807 16.0389 15.981H16.0199C15.6494 15.988 15.2812 15.9211 14.9369 15.7841C14.5925 15.6472 14.2789 15.443 14.0144 15.1835C13.7499 14.9239 13.5398 14.6143 13.3964 14.2726C13.253 13.9309 13.1791 13.5641 13.1791 13.1935C13.1791 12.8229 13.253 12.4561 13.3964 12.1144C13.5398 11.7727 13.7499 11.463 14.0144 11.2035C14.2789 10.944 14.5925 10.7397 14.9369 10.6028C15.2812 10.4659 15.6494 10.399 16.0199 10.406C16.7566 10.4038 17.464 10.6943 17.9866 11.2136C18.5092 11.7328 18.8042 12.4383 18.8069 13.175C18.8145 13.5437 18.7468 13.9102 18.6079 14.2518C18.4689 14.5935 18.2617 14.9032 17.9989 15.162L18.0029 15.158Z" fill="#666666"/>
</svg>